<?xml version="1.0" encoding="UTF-8" standalone="no"?>
<!-- Created with Inkscape (http://www.inkscape.org/) -->

<svg
   xmlns:dc="http://purl.org/dc/elements/1.1/"
   xmlns:cc="http://creativecommons.org/ns#"
   xmlns:rdf="http://www.w3.org/1999/02/22-rdf-syntax-ns#"
   xmlns:svg="http://www.w3.org/2000/svg"
   xmlns="http://www.w3.org/2000/svg"
   xmlns:sodipodi="http://sodipodi.sourceforge.net/DTD/sodipodi-0.dtd"
   xmlns:inkscape="http://www.inkscape.org/namespaces/inkscape"
   version="1.1"
   width="14.766221"
   height="15.285302"
   id="svg3119"
   inkscape:version="0.48.1 r9760"
   sodipodi:docname="reload.svg">
  <sodipodi:namedview
     pagecolor="#ffffff"
     bordercolor="#666666"
     borderopacity="1"
     objecttolerance="10"
     gridtolerance="10"
     guidetolerance="10"
     inkscape:pageopacity="0"
     inkscape:pageshadow="2"
     inkscape:window-width="1203"
     inkscape:window-height="682"
     id="namedview8"
     showgrid="false"
     inkscape:zoom="26.16798"
     inkscape:cx="17.981893"
     inkscape:cy="7.2295225"
     inkscape:window-x="0"
     inkscape:window-y="0"
     inkscape:window-maximized="0"
     inkscape:current-layer="svg3119" />
  <metadata
     id="metadata3125">
    <rdf:RDF>
      <cc:Work
         rdf:about="">
        <dc:format>image/svg+xml</dc:format>
        <dc:type
           rdf:resource="http://purl.org/dc/dcmitype/StillImage" />
        <dc:title></dc:title>
      </cc:Work>
    </rdf:RDF>
  </metadata>
  <defs
     id="defs3123">
    <marker
       refX="0"
       refY="0"
       orient="auto"
       id="TriangleInL"
       style="overflow:visible">
      <path
         d="m 5.77,0 -8.65,5 0,-10 8.65,5 z"
         transform="scale(-0.8,-0.8)"
         id="path4051"
         style="fill-rule:evenodd;stroke:#000000;stroke-width:1pt;marker-start:none" />
    </marker>
  </defs>
  <path
     d="M 7.59375,0 C 3.305636,0 0,3.4330038 0,7.59375 c 0,4.250452 3.0425259,7.6875 7.3568339,7.6875 0.727966,0 1.9306793,0.07715 3.2172961,-0.441861 1.286617,-0.519012 2.913104,-2.201165 3.403137,-3.002908 0.490033,-0.801743 0.788954,-1.617731 0.788954,-1.617731 l -2.49375,-1.4 c 0,0 -0.516593,0.9587827 -0.888954,1.517731 -0.372361,0.558948 -1.108886,1.388657 -1.9343868,1.721658 C 8.6236296,12.39114 7.716387,12.28125 7.3568339,12.28125 4.6221339,12.28125 3,10.150966 3,7.59375 3,4.946827 4.832856,3 7.59375,3 8.3315784,3 9.7525208,3.034078 11.4375,4.53125 l -1.221189,1.2958015 c 1.519339,0.056542 3.030517,0.023375 4.54991,0 0,-1.5424283 0,-3.2696265 0,-4.8303799 L 13.5,2.375 C 11.13448,0.22618012 8.6568033,0 7.59375,0 z"
     id="path3131"
     style="font-size:medium;font-style:normal;font-variant:normal;font-weight:normal;font-stretch:normal;text-indent:0;text-align:start;text-decoration:none;line-height:normal;letter-spacing:normal;word-spacing:normal;text-transform:none;direction:ltr;block-progression:tb;writing-mode:lr-tb;text-anchor:start;baseline-shift:baseline;color:#000000;fill:#58595b;fill-opacity:1;stroke:none;stroke-width:0;marker:none;visibility:visible;display:inline;overflow:visible;enable-background:accumulate;font-family:Sans;-inkscape-font-specification:Sans;stroke-miterlimit:4;stroke-dasharray:none"
     inkscape:connector-curvature="0"
     sodipodi:nodetypes="sssszcczsssscccccs" />
</svg>
